PathFileType	4	(X/Y/Z)	45_2_48_p0_0-189_filt_butterworth.trc
DataRate	CameraRate	NumFrames	NumMarkers	Units	OrigDataRate	OrigDataStartFrame	OrigNumFrames
56.0	56.0	6	27	m	56.0	70	189
Frame#	Time	RHip			RKnee			RAnkle			RBigToe			RSmallToe			RHeel			LHip			LKnee			LAnkle			LBigToe			LSmallToe			LHeel			Neck			Head			Nose			RShoulder			RElbow			RWrist			RThumb			RIndex			RPinky			LShoulder			LElbow			LWrist			LThumb			LIndex			LPinky			
		X1	Y1	Z1	X2	Y2	Z2	X3	Y3	Z3	X4	Y4	Z4	X5	Y5	Z5	X6	Y6	Z6	X7	Y7	Z7	X8	Y8	Z8	X9	Y9	Z9	X10	Y10	Z10	X11	Y11	Z11	X12	Y12	Z12	X13	Y13	Z13	X14	Y14	Z14	X15	Y15	Z15	X16	Y16	Z16	X17	Y17	Z17	X18	Y18	Z18	X19	Y19	Z19	X20	Y20	Z20	X21	Y21	Z21	X22	Y22	Z22	X23	Y23	Z23	X24	Y24	Z24	X25	Y25	Z25	X26	Y26	Z26	X27	Y27	Z27	
70	1.25	0.5063898232296757	0.6467030851738294	0.7975529601501409	0.5401078072721132	0.1712684644424356	0.7589067067859238	0.5946864531386493	-0.28986621676052815	0.7183920990537	0.5808452392852113	-0.2723866452805224	0.5532439466487411	0.6442717884743203	-0.29339058408705926	0.5900859555791926	0.5767541883819639	-0.40962175225648056	0.8082642879916967	0.2982118016104596	0.6117991271853431	0.8117536230386676	0.3534300986935597	0.11978940213557487	0.7939678219874751	0.4022531763209783	-0.35861588210795436	0.7679254619039386	0.43501005091998346	-0.28623735674364764	0.5600342177363355	0.37570204923593364	-0.3417643102786413	0.6224412347555089	0.42668208098747584	-0.43785759447944433	0.8157472839195917	0.3842946729765999	1.1845473890659302	0.8506512324455829	0.40837504867197005	1.4378505423174721	0.8450673897607435	0.41289305610732374	1.3157190303516018	0.745910408123588	0.5457683604938071	1.1056928294101778	0.8858491778255649	0.6089639123751966	0.8868888432367843	0.9445801952801414	0.6863532340122606	0.8955014061914791	0.7459768940995799	0.7400070499256641	0.9911206930253261	0.6540172394562931	0.7627941082024575	0.9644943379112856	0.6555868933738458	0.7394578049073602	0.9485964138369762	0.6018399463524733	0.2131656316895683	1.1009779957690047	0.8556346243153576	0.07544547598790652	0.922449243068548	0.9006914649557279	-0.05197285986999669	0.9046557795473239	0.7558950881722518	-0.1214630578073092	0.9724835538969653	0.7145245358847713	-0.13633328674988648	0.9623712024224252	0.7228520557909961	-0.14125526183214654	0.9184315864058881	0.7683061957789272	
71	1.2678571428571428	0.5064714105529344	0.6462849968676464	0.7971914133059922	0.5395069466301805	0.1704793666942464	0.7587775135313823	0.5947765901096469	-0.2895068216766492	0.718286041035838	0.5812352345089226	-0.27410999734551117	0.5539528641867574	0.6447815811480476	-0.2942038884573353	0.5911249179235399	0.576620727472334	-0.4097639072201599	0.8095092378803591	0.29815832094939554	0.6131291088474482	0.8074416760532682	0.35318132696400745	0.11981079418457175	0.7927798859062198	0.40159335010643105	-0.35831386567115986	0.7664349716819353	0.4356977622838569	-0.28598662183198026	0.558397829264573	0.3753450917297402	-0.34071026241397306	0.61955574819363	0.4250080645438431	-0.43770717812353355	0.8157105188220626	0.3884298089394672	1.1850688927497377	0.8501164463831621	0.4141857153946916	1.437102804517829	0.8447307453702326	0.41705133796843585	1.3148069707747363	0.7433852488155928	0.5496670436378517	1.106790495302751	0.8826425745385844	0.6075556392452341	0.8840530740031615	0.9422510215243045	0.6883462864368557	0.8920358580762505	0.7490624137467499	0.7473198736109437	0.9823192057858023	0.664079020251563	0.7694828261768184	0.9554935534235689	0.6634195683709045	0.7467453928783295	0.9425085471794659	0.609395854141857	0.21498339189611754	1.104414641955888	0.8531688725396036	0.07339848854249609	0.9288157373644419	0.8981070905993601	-0.05311474342919921	0.9188949190642534	0.7509261127935434	-0.11792098483654331	0.9873508174696303	0.703333635568786	-0.13611574016341857	0.9755614418241221	0.7167671805391667	-0.14277574024927117	0.9363884535666948	0.756589709060341	
72	1.2857142857142858	0.5064401025525092	0.6457184108884438	0.797147662866699	0.5390506125967783	0.1697592543497765	0.7583971178758808	0.594926929538656	-0.2889524355432632	0.7180832397847393	0.5815244040195537	-0.2758149141392019	0.5544967162390783	0.6453196239773764	-0.2945770979131278	0.5916109135846019	0.5763985649985349	-0.4096410297090169	0.810492388398379	0.29821543732972444	0.6142857246869025	0.8030994898757704	0.35290471393673223	0.11976304700188911	0.7917970001235121	0.40091040343302703	-0.358075028443009	0.7651890142592794	0.4364319921224121	-0.2854588044799815	0.5566270075277243	0.37508936376164415	-0.34053240191861633	0.617090617618997	0.42336341371646613	-0.43745625204647576	0.8155801251453703	0.3921554395048227	1.185240484243635	0.8497610483111975	0.4190740954683916	1.4363690435147192	0.8452438087172339	0.4198918515882918	1.3136652104023614	0.7415925797177846	0.5531313925524004	1.1084966934515423	0.8784343594078067	0.6066030281092678	0.8801518337095003	0.9412143866890141	0.6913469634479285	0.8887460933494921	0.752365061986449	0.7534271537281543	0.9752366752718261	0.6712016408790888	0.7733162743384979	0.9496132104601329	0.6673171292004884	0.7541847952428633	0.9353110984697711	0.6185215199849199	0.2167217861597707	1.1074449520775271	0.8513480266378121	0.07205459890114878	0.9354624341785512	0.8924441162260484	-0.053774578221069264	0.9309201083783338	0.7483634880053505	-0.11499750185149259	1.0006764425644692	0.694420696849779	-0.13590517503100658	0.9873979665748635	0.7129160482485204	-0.1441180195317344	0.9496786887532181	0.746859841001358	
73	1.3035714285714286	0.506368789100801	0.6450373980839436	0.797299291451196	0.5387934051159169	0.16915023613109265	0.7577716101791147	0.5951718132607091	-0.288172618278757	0.7176954588143979	0.5818698578387588	-0.2779077006409753	0.5554999419685531	0.6461123197423676	-0.2945142930013728	0.5916077403085945	0.5761064929224138	-0.40927495082222737	0.8112219124224149	0.298415355666489	0.6154095647815415	0.7986675835180741	0.35267477419892873	0.11975078995122801	0.790995064896505	0.400240319325448	-0.35766656134518454	0.7641543807519029	0.4370971625506824	-0.28465391257220113	0.5549330086912531	0.37492489510000393	-0.3410856723552166	0.6155679600502889	0.42179664171296116	-0.437143820121134	0.8153607760551488	0.3953352162875651	1.1849980177576693	0.849878164382281	0.42347801719872574	1.4359063464300326	0.8463181825198922	0.42181738682154724	1.3126076087427794	0.7404211083587616	0.5564333513474551	1.110516946846781	0.8731501324243802	0.6057714064244857	0.8757963168572753	0.9411140996054491	0.6948268157379822	0.8859144967590594	0.7553225787908986	0.7585270666847772	0.9695858694057691	0.6759135248144033	0.7752255423898354	0.9459849004572382	0.6683889451318236	0.761361895225034	0.9273434755147624	0.6285140228249785	0.21839944910440504	1.1103341483280875	0.8502133471505211	0.07145600912306153	0.9427014889252823	0.8834423563098257	-0.05372321239836231	0.9401146524090234	0.7470102448259307	-0.11323933439977107	1.012595793491929	0.6884524358221801	-0.13547871079587237	0.9981980074775783	0.7111960399168387	-0.1441917939142718	0.9588904024593682	0.7381809130899966	
74	1.3214285714285714	0.5063541330612739	0.6442982303172788	0.7974720655667665	0.5387294106482549	0.16866665033934702	0.7569405338716486	0.5954844947792978	-0.2872900103743899	0.7171366244900994	0.5823980640358607	-0.28043948056837475	0.5571196834032506	0.6472922908340983	-0.2940128516743944	0.5911745446817276	0.5757677433225654	-0.40885673439447867	0.811736368828	0.29881274057271695	0.6166492162898874	0.7941635861259255	0.3525553570848714	0.11983609683587954	0.7901921397442475	0.39962092698056895	-0.35701015961655896	0.7632808631531851	0.4376029579722742	-0.2837839511627411	0.5535121992210548	0.37484796443584656	-0.3421064443310706	0.6151609028149689	0.4203396143597198	-0.43677509346013194	0.8150582912071603	0.3981700030062878	1.1844422301130038	0.8505628360757957	0.42788511364410575	1.4358349648371955	0.8475534573681273	0.42318328439761277	1.311807928942417	0.7398509327390165	0.5597976575092445	1.1125577303922551	0.8672410537496551	0.6048852949629264	0.8716746080747104	0.9412660706574574	0.698137778646871	0.8835848814738965	0.7574405260973178	0.763335338774758	0.9644625684845725	0.6799950073670995	0.7768941219790326	0.9430221659391865	0.6696639162061339	0.7681071534088724	0.9187431597890907	0.6384609274240889	0.2200783800563598	1.1133938820466327	0.849402135636595	0.07117891110255253	0.9502164761728601	0.8718575781394828	-0.053010267882372834	0.9466960082761723	0.7455020660172962	-0.11203387225143596	1.0233532224650974	0.6844801210009973	-0.1341996874252152	1.008523777384599	0.7099359374417497	-0.14218746394689252	0.9666083278005052	0.7296098680539969	
75	1.3392857142857142	0.5064263968463322	0.6435604981776899	0.7975222041357024	0.5388304049818767	0.1683111114000187	0.7559496848563553	0.5957686935714978	-0.2865817718153563	0.7165847464632346	0.5830963609407482	-0.28302868394392816	0.5590505738758953	0.6488236712745412	-0.29312026512748696	0.5904623258174097	0.5753959806958008	-0.4085326702990316	0.8119722106907419	0.2994164076739167	0.6180208332463741	0.7897339935121046	0.352540851607813	0.12006036645848639	0.7891735575791619	0.39907854906886464	-0.35623212140807625	0.7625299109442262	0.4378831343478552	-0.28325910816240996	0.5524857958288499	0.3748857326154658	-0.34303227116995316	0.615333306095963	0.4190144360545133	-0.43632715810553824	0.8147131837927637	0.40101355890528306	1.1837179070774972	0.8518465798173509	0.4326083156056295	1.4361211709903436	0.8487149591676467	0.42432580738510367	1.3112722590230625	0.7403239970199403	0.5632096939288065	1.114415165464326	0.8614072882322502	0.6040448846579325	0.8682711530518945	0.941214122627733	0.7008784750658432	0.8816404194677234	0.7585863295727663	0.7686032209455702	0.959180862214514	0.685077516884049	0.7796218643727926	0.9395908984587882	0.6738782453411617	0.7744014187311752	0.9098241617683265	0.6474671437555868	0.22172709329436718	1.1165362900105436	0.8487484221086422	0.0704029291732107	0.9570834229298097	0.8590970101266289	-0.052006016929630375	0.9515049127717714	0.7432049852373064	-0.11032908182617499	1.0332790619896384	0.6806579220740493	-0.13149494286329927	1.0187715525521486	0.7069696110578628	-0.1378099485317717	0.9757891302746367	0.7199051387386168	
